<svg version="1.1" id="Layer_1" xmlns="http://www.w3.org/2000/svg" xmlns:xlink="http://www.w3.org/1999/xlink" x="0px" y="0px"
	 width="100%" viewBox="0 0 2752 1536" enable-background="new 0 0 2752 1536" xml:space="preserve">
<path fill="#000000" opacity="1.000000" stroke="none" 
	d="
M1800.000000,1538.000000 
	C1200.069702,1538.000000 601.139465,1538.000000 2.104593,1538.000000 
	C2.104593,1026.129395 2.104593,514.258667 2.104593,2.193994 
	C919.097229,2.193994 1836.194458,2.193994 2753.645996,2.193994 
	C2753.645996,513.999817 2753.645996,1025.999878 2753.645996,1538.000000 
	C2436.258057,1538.000000 2118.629150,1538.000000 1800.000000,1538.000000 
M2031.780762,733.963196 
	C2031.380249,733.630981 2030.979614,733.298706 2030.392334,731.241699 
	C2030.392334,720.361633 2030.392334,709.481567 2030.392334,698.223877 
	C2007.913696,698.223877 1986.764893,698.223877 1965.725098,698.223877 
	C1963.431152,710.243347 1964.145874,934.429688 1966.259888,941.413269 
	C1989.240601,941.413269 2012.079834,941.413269 2035.370361,941.413269 
	C2035.539673,938.032410 2035.782837,935.435120 2035.782837,932.837891 
	C2035.784180,893.853394 2035.776611,854.868896 2035.722168,815.884460 
	C2035.685181,789.441345 2048.849609,770.190308 2074.108398,762.695007 
	C2085.120361,759.427246 2097.001221,759.056213 2108.504150,757.493225 
	C2112.015869,757.015991 2115.583740,756.950195 2118.924561,756.710449 
	C2120.760498,740.770508 2119.850586,701.625549 2117.534424,694.077332 
	C2101.715576,691.575378 2086.449951,694.504639 2071.791504,700.398865 
	C2054.822510,707.222290 2042.456787,719.591003 2031.780762,733.963196 
M917.000061,552.798645 
	C868.379944,553.152039 819.759705,553.802185 771.139832,553.775146 
	C722.725403,553.748230 674.306152,552.031677 624.622253,553.242432 
	C626.114258,555.931763 626.506165,557.248779 627.363525,558.092773 
	C642.777771,573.266602 658.236206,588.395569 673.710571,603.508179 
	C685.617249,615.136475 697.594971,626.692444 709.448608,638.374329 
	C711.335876,640.234192 712.736084,642.588318 715.347168,646.003113 
	C711.568237,646.003113 709.925537,646.006775 708.282898,646.002502 
	C683.630432,645.938416 658.978027,645.843933 634.325562,645.821838 
	C623.552551,645.812195 622.788513,646.539734 622.747070,657.016235 
	C622.661499,678.628174 622.646545,700.240479 622.648254,721.852661 
	C622.649719,740.124023 622.749268,758.395386 622.745911,776.666748 
	C622.738892,814.313965 622.722229,851.961304 622.637451,889.608398 
	C622.619324,897.659058 625.106201,904.197937 631.096375,910.049133 
	C657.310425,935.655212 683.276428,961.518372 709.084839,987.533813 
	C713.938293,992.426208 719.017212,994.429749 725.857971,994.373047 
	C755.841187,994.124634 785.828613,994.180298 815.813110,994.363220 
	C837.785828,994.497253 859.755615,995.098755 881.728394,995.262329 
	C886.571533,995.298401 891.421875,994.364380 896.936340,993.809937 
	C898.942200,964.715454 894.306274,936.622498 897.314758,906.540527 
	C901.154602,910.104370 903.582092,912.209045 905.843628,914.479065 
	C929.825195,938.549988 953.922180,962.508972 977.634033,986.843018 
	C982.971191,992.320312 988.491821,994.709778 996.088745,994.446899 
	C1005.040649,994.137146 1014.030457,995.171021 1023.008850,995.317871 
	C1034.000000,995.497620 1045.001587,995.572632 1055.988525,995.296021 
	C1065.019165,995.068787 1065.938477,993.933960 1066.059082,984.383789 
	C1066.189453,974.057312 1065.791870,963.717651 1066.162231,953.403015 
	C1066.408569,946.538330 1064.074585,941.540894 1059.113770,936.737305 
	C1033.759155,912.185974 1008.702637,887.326660 983.579773,862.536682 
	C981.324768,860.311523 979.340942,857.811584 975.572388,853.574097 
	C992.394287,853.574097 1006.885071,853.771851 1021.367981,853.518555 
	C1035.869995,853.264954 1050.461914,854.492798 1065.383911,852.541931 
	C1065.662842,848.478149 1066.037842,845.536316 1066.041382,842.594055 
	C1066.117554,778.958252 1066.100464,715.322266 1066.282349,651.686829 
	C1066.298828,645.917969 1064.542114,641.615784 1060.443481,637.562805 
	C1034.152100,611.564026 1007.958435,585.464600 981.937744,559.195068 
	C977.344849,554.558228 972.407959,552.567505 965.976074,552.673279 
	C950.320984,552.930908 934.659180,552.785522 917.000061,552.798645 
M1452.987305,941.975403 
	C1463.047363,941.879700 1473.107544,941.783997 1484.619995,941.674438 
	C1470.486938,922.938904 1454.478149,908.312256 1442.055786,890.624207 
	C1445.016968,886.720276 1447.400757,883.536621 1449.826782,880.385620 
	C1470.243530,853.869385 1483.127930,824.232666 1484.971436,790.623901 
	C1488.773804,721.304199 1464.238403,665.517395 1404.364746,627.764893 
	C1371.929688,607.313354 1335.915771,599.481384 1298.131104,604.707092 
	C1220.739868,615.410339 1163.864014,673.881897 1153.551758,755.818298 
	C1150.808716,777.613037 1153.077271,798.784668 1158.136597,820.046143 
	C1166.711426,856.081482 1185.299072,886.036377 1213.767822,908.992432 
	C1239.308960,929.587769 1268.798340,942.121521 1302.232544,944.694336 
	C1333.218750,947.078857 1362.540405,942.611206 1390.023438,927.695068 
	C1392.270874,926.475342 1394.728516,925.643250 1397.166260,924.597778 
	C1400.525146,928.538025 1403.804077,931.882996 1406.486084,935.652710 
	C1410.146851,940.798096 1414.766602,942.543091 1421.025269,942.234253 
	C1430.994507,941.742371 1441.002075,942.027710 1452.987305,941.975403 
M1823.454956,748.913452 
	C1838.265259,754.436951 1847.634644,770.739014 1842.557373,795.175781 
	C1830.066772,793.792175 1817.593140,791.821472 1805.049683,791.142944 
	C1778.552734,789.709656 1752.389404,791.415222 1728.058105,803.577515 
	C1711.516968,811.845825 1698.090332,823.416748 1690.924805,840.992065 
	C1678.998169,870.244629 1680.651367,905.913330 1714.441040,929.611450 
	C1719.554321,933.197571 1725.280273,936.196350 1731.125488,938.397827 
	C1747.846802,944.695862 1765.222168,947.417908 1783.096680,945.647644 
	C1811.057617,942.878479 1835.422974,933.156433 1852.273926,909.195679 
	C1852.703247,908.585266 1853.880981,908.501099 1854.678833,908.183777 
	C1856.321045,912.826172 1857.821411,917.182678 1859.401001,921.510193 
	C1863.323364,932.255310 1870.656250,939.236389 1881.781982,942.421814 
	C1898.979858,947.345642 1915.820923,945.901733 1933.443359,940.812439 
	C1933.178833,921.831726 1933.774658,903.391113 1933.108276,884.841797 
	C1920.623413,883.110535 1916.598022,875.240967 1915.291382,865.213135 
	C1914.862915,861.924561 1914.692261,858.582642 1914.674316,855.263672 
	C1914.571899,836.279785 1914.831909,817.289062 1914.389526,798.314087 
	C1914.149902,788.040344 1913.585693,777.641663 1911.735352,767.562317 
	C1905.779541,735.117737 1887.049194,712.773804 1856.069214,701.442993 
	C1823.485107,689.525452 1790.096436,688.994507 1756.875122,698.080872 
	C1729.870850,705.466736 1709.262573,721.501099 1698.183838,747.998230 
	C1695.033569,755.532349 1692.574097,763.434265 1694.486816,771.890015 
	C1713.951172,771.890015 1732.871216,771.890015 1750.493286,771.890015 
	C1755.651611,765.603516 1759.293335,759.311890 1764.578003,755.064331 
	C1782.098877,740.981812 1801.777344,741.044800 1823.454956,748.913452 
M1673.718750,725.005188 
	C1673.718750,714.806641 1673.718750,704.608093 1673.718750,694.502014 
	C1658.078125,691.456909 1644.380371,694.485413 1631.130005,698.834778 
	C1611.833374,705.168762 1598.133667,718.857910 1585.860596,735.321655 
	C1585.860596,722.980103 1585.860596,710.638550 1585.860596,698.303589 
	C1563.650269,698.303589 1542.500854,698.303589 1520.478638,698.303589 
	C1520.558472,779.937805 1520.127075,860.743225 1520.722290,941.416382 
	C1544.654785,941.416382 1567.131958,941.416382 1590.610596,941.416382 
	C1590.610596,934.357239 1590.621948,928.051392 1590.608643,921.745605 
	C1590.533813,886.084839 1590.349365,850.423828 1590.410034,814.763306 
	C1590.452393,789.871704 1603.389893,770.989624 1626.991333,763.184265 
	C1636.644287,759.992004 1647.167725,759.318665 1657.349609,757.887268 
	C1662.492798,757.164246 1667.757568,757.305786 1673.690552,757.021790 
	C1673.690552,746.235718 1673.690552,736.614929 1673.718750,725.005188 
z"/>
<path fill="#576925" opacity="1.000000" stroke="none" 
	d="
M918.000122,552.800537 
	C934.659180,552.785522 950.320984,552.930908 965.976074,552.673279 
	C972.407959,552.567505 977.344849,554.558228 981.937744,559.195068 
	C1007.958435,585.464600 1034.152100,611.564026 1060.443481,637.562805 
	C1064.542114,641.615784 1066.298828,645.917969 1066.282349,651.686829 
	C1066.100464,715.322266 1066.117554,778.958252 1066.041382,842.594055 
	C1066.037842,845.536316 1065.662842,848.478149 1065.383911,852.541931 
	C1050.461914,854.492798 1035.869995,853.264954 1021.367981,853.518555 
	C1006.885071,853.771851 992.394287,853.574097 975.572388,853.574097 
	C979.340942,857.811584 981.324768,860.311523 983.579773,862.536682 
	C1008.702637,887.326660 1033.759155,912.185974 1059.113770,936.737305 
	C1064.074585,941.540894 1066.408569,946.538330 1066.162231,953.403015 
	C1065.791870,963.717651 1066.189453,974.057312 1066.059082,984.383789 
	C1065.938477,993.933960 1065.019165,995.068787 1055.988525,995.296021 
	C1045.001587,995.572632 1034.000000,995.497620 1023.008850,995.317871 
	C1014.030457,995.171021 1005.040649,994.137146 996.088745,994.446899 
	C988.491821,994.709778 982.971191,992.320312 977.634033,986.843018 
	C953.922180,962.508972 929.825195,938.549988 905.843628,914.479065 
	C903.582092,912.209045 901.154602,910.104370 897.314758,906.540527 
	C894.306274,936.622498 898.942200,964.715454 896.936340,993.809937 
	C891.421875,994.364380 886.571533,995.298401 881.728394,995.262329 
	C859.755615,995.098755 837.785828,994.497253 815.813110,994.363220 
	C785.828613,994.180298 755.841187,994.124634 725.857971,994.373047 
	C719.017212,994.429749 713.938293,992.426208 709.084839,987.533813 
	C683.276428,961.518372 657.310425,935.655212 631.096375,910.049133 
	C625.106201,904.197937 622.619324,897.659058 622.637451,889.608398 
	C622.722229,851.961304 622.738892,814.313965 622.745911,776.666748 
	C622.749268,758.395386 622.649719,740.124023 622.648254,721.852661 
	C622.646545,700.240479 622.661499,678.628174 622.747070,657.016235 
	C622.788513,646.539734 623.552551,645.812195 634.325562,645.821838 
	C658.978027,645.843933 683.630432,645.938416 708.282898,646.002502 
	C709.925537,646.006775 711.568237,646.003113 715.347168,646.003113 
	C712.736084,642.588318 711.335876,640.234192 709.448608,638.374329 
	C697.594971,626.692444 685.617249,615.136475 673.710571,603.508179 
	C658.236206,588.395569 642.777771,573.266602 627.363525,558.092773 
	C626.506165,557.248779 626.114258,555.931763 624.622253,553.242432 
	C674.306152,552.031677 722.725403,553.748230 771.139832,553.775146 
	C819.759705,553.802185 868.379944,553.152039 918.000122,552.800537 
M958.934753,838.101624 
	C962.941833,841.043274 965.073303,846.751892 971.563843,847.011230 
	C971.563843,780.300110 971.563843,714.138306 971.563843,648.153381 
	C963.105713,645.795593 726.009155,646.084106 718.077759,648.555969 
	C718.077759,669.219238 718.079346,690.166321 718.077332,711.113342 
	C718.075317,732.436096 718.067017,753.758789 718.066528,775.081543 
	C718.065979,796.071228 717.943237,817.061890 718.110901,838.050232 
	C718.279846,859.201721 717.286011,880.396301 718.740295,902.594421 
	C776.382263,901.832947 832.714172,904.158264 889.810730,900.655334 
	C848.680908,858.316345 807.506348,816.658630 766.558228,774.145874 
	C770.126892,772.854614 773.270630,772.401306 776.407654,772.443481 
	C785.052673,772.559570 793.696106,773.122986 802.338013,773.080322 
	C829.982666,772.943726 857.626099,772.566284 885.270691,772.396912 
	C890.725952,772.363464 895.605957,773.872864 899.687988,778.048767 
	C919.013611,797.818909 938.501587,817.430420 958.934753,838.101624 
z"/>
<path fill="#BEC0B2" opacity="1.000000" stroke="none" 
	d="
M1451.990356,941.979919 
	C1441.002075,942.027710 1430.994507,941.742371 1421.025269,942.234253 
	C1414.766602,942.543091 1410.146851,940.798096 1406.486084,935.652710 
	C1403.804077,931.882996 1400.525146,928.538025 1397.166260,924.597778 
	C1394.728516,925.643250 1392.270874,926.475342 1390.023438,927.695068 
	C1362.540405,942.611206 1333.218750,947.078857 1302.232544,944.694336 
	C1268.798340,942.121521 1239.308960,929.587769 1213.767822,908.992432 
	C1185.299072,886.036377 1166.711426,856.081482 1158.136597,820.046143 
	C1153.077271,798.784668 1150.808716,777.613037 1153.551758,755.818298 
	C1163.864014,673.881897 1220.739868,615.410339 1298.131104,604.707092 
	C1335.915771,599.481384 1371.929688,607.313354 1404.364746,627.764893 
	C1464.238403,665.517395 1488.773804,721.304199 1484.971436,790.623901 
	C1483.127930,824.232666 1470.243530,853.869385 1449.826782,880.385620 
	C1447.400757,883.536621 1445.016968,886.720276 1442.055786,890.624207 
	C1454.478149,908.312256 1470.486938,922.938904 1484.619995,941.674438 
	C1473.107544,941.783997 1463.047363,941.879700 1451.990356,941.979919 
M1235.909180,727.034912 
	C1222.593384,762.526306 1224.226685,797.580933 1239.896240,831.838440 
	C1248.060181,849.686951 1261.738525,863.289978 1279.306763,871.438049 
	C1300.781250,881.397827 1323.624512,882.713989 1346.586548,875.844910 
	C1348.586060,875.246765 1350.423096,874.105408 1352.688721,873.052246 
	C1334.848755,851.411926 1317.622681,830.516174 1299.251953,808.232056 
	C1304.425659,807.982666 1307.611572,807.709351 1310.798706,807.696106 
	C1325.113770,807.636597 1339.562378,808.860535 1353.707764,807.303833 
	C1368.291382,805.698975 1378.546509,809.640747 1385.756592,822.500305 
	C1388.008301,826.516235 1391.931152,829.595093 1395.755371,833.842896 
	C1411.258057,803.880127 1414.030396,773.856384 1406.912231,743.212708 
	C1401.568970,720.210205 1391.477295,699.587219 1371.043457,685.206665 
	C1344.625244,666.614502 1316.372192,663.219849 1286.727051,674.358276 
	C1262.415527,683.492798 1246.287109,701.721436 1235.909180,727.034912 
z"/>
<path fill="#BEC0B2" opacity="1.000000" stroke="none" 
	d="
M1822.770264,748.537109 
	C1801.777344,741.044800 1782.098877,740.981812 1764.578003,755.064331 
	C1759.293335,759.311890 1755.651611,765.603516 1750.493286,771.890015 
	C1732.871216,771.890015 1713.951172,771.890015 1694.486816,771.890015 
	C1692.574097,763.434265 1695.033569,755.532349 1698.183838,747.998230 
	C1709.262573,721.501099 1729.870850,705.466736 1756.875122,698.080872 
	C1790.096436,688.994507 1823.485107,689.525452 1856.069214,701.442993 
	C1887.049194,712.773804 1905.779541,735.117737 1911.735352,767.562317 
	C1913.585693,777.641663 1914.149902,788.040344 1914.389526,798.314087 
	C1914.831909,817.289062 1914.571899,836.279785 1914.674316,855.263672 
	C1914.692261,858.582642 1914.862915,861.924561 1915.291382,865.213135 
	C1916.598022,875.240967 1920.623413,883.110535 1933.108276,884.841797 
	C1933.774658,903.391113 1933.178833,921.831726 1933.443359,940.812439 
	C1915.820923,945.901733 1898.979858,947.345642 1881.781982,942.421814 
	C1870.656250,939.236389 1863.323364,932.255310 1859.401001,921.510193 
	C1857.821411,917.182678 1856.321045,912.826172 1854.678833,908.183777 
	C1853.880981,908.501099 1852.703247,908.585266 1852.273926,909.195679 
	C1835.422974,933.156433 1811.057617,942.878479 1783.096680,945.647644 
	C1765.222168,947.417908 1747.846802,944.695862 1731.125488,938.397827 
	C1725.280273,936.196350 1719.554321,933.197571 1714.441040,929.611450 
	C1680.651367,905.913330 1678.998169,870.244629 1690.924805,840.992065 
	C1698.090332,823.416748 1711.516968,811.845825 1728.058105,803.577515 
	C1752.389404,791.415222 1778.552734,789.709656 1805.049683,791.142944 
	C1817.593140,791.821472 1830.066772,793.792175 1842.557373,795.175781 
	C1847.634644,770.739014 1838.265259,754.436951 1822.770264,748.537109 
M1843.725830,836.469299 
	C1840.969116,835.343140 1838.306519,833.685608 1835.440186,833.178162 
	C1818.267090,830.137695 1800.962646,829.319275 1784.076416,834.234741 
	C1776.913452,836.319885 1769.720947,839.753113 1763.750122,844.197083 
	C1748.989502,855.183289 1749.010010,880.277649 1767.247803,889.243835 
	C1772.822021,891.984253 1778.968994,893.954041 1785.074341,895.150330 
	C1808.551880,899.750854 1836.761230,883.283569 1842.258911,860.699890 
	C1844.039307,853.386536 1843.871094,845.598877 1843.725830,836.469299 
z"/>
<path fill="#BDBFB1" opacity="1.000000" stroke="none" 
	d="
M2032.955566,734.991455 
	C2042.456787,719.591003 2054.822510,707.222290 2071.791504,700.398865 
	C2086.449951,694.504639 2101.715576,691.575378 2117.534424,694.077332 
	C2119.850586,701.625549 2120.760498,740.770508 2118.924561,756.710449 
	C2115.583740,756.950195 2112.015869,757.015991 2108.504150,757.493225 
	C2097.001221,759.056213 2085.120361,759.427246 2074.108398,762.695007 
	C2048.849609,770.190308 2035.685181,789.441345 2035.722168,815.884460 
	C2035.776611,854.868896 2035.784180,893.853394 2035.782837,932.837891 
	C2035.782837,935.435120 2035.539673,938.032410 2035.370361,941.413269 
	C2012.079834,941.413269 1989.240601,941.413269 1966.259888,941.413269 
	C1964.145874,934.429688 1963.431152,710.243347 1965.725098,698.223877 
	C1986.764893,698.223877 2007.913696,698.223877 2030.392334,698.223877 
	C2030.392334,709.481567 2030.392334,720.361633 2030.303955,732.723511 
	C2030.457642,736.807129 2031.268188,737.427490 2032.955566,734.991455 
z"/>
<path fill="#BEBFB0" opacity="1.000000" stroke="none" 
	d="
M1673.704590,725.999634 
	C1673.690552,736.614929 1673.690552,746.235718 1673.690552,757.021790 
	C1667.757568,757.305786 1662.492798,757.164246 1657.349609,757.887268 
	C1647.167725,759.318665 1636.644287,759.992004 1626.991333,763.184265 
	C1603.389893,770.989624 1590.452393,789.871704 1590.410034,814.763306 
	C1590.349365,850.423828 1590.533813,886.084839 1590.608643,921.745605 
	C1590.621948,928.051392 1590.610596,934.357239 1590.610596,941.416382 
	C1567.131958,941.416382 1544.654785,941.416382 1520.722290,941.416382 
	C1520.127075,860.743225 1520.558472,779.937805 1520.478638,698.303589 
	C1542.500854,698.303589 1563.650269,698.303589 1585.860596,698.303589 
	C1585.860596,710.638550 1585.860596,722.980103 1585.860596,735.321655 
	C1598.133667,718.857910 1611.833374,705.168762 1631.130005,698.834778 
	C1644.380371,694.485413 1658.078125,691.456909 1673.718750,694.502014 
	C1673.718750,704.608093 1673.718750,714.806641 1673.704590,725.999634 
z"/>
<path fill="#010201" opacity="1.000000" stroke="none" 
	d="
M958.433228,837.600037 
	C938.501587,817.430420 919.013611,797.818909 899.687988,778.048767 
	C895.605957,773.872864 890.725952,772.363464 885.270691,772.396912 
	C857.626099,772.566284 829.982666,772.943726 802.338013,773.080322 
	C793.696106,773.122986 785.052673,772.559570 776.407654,772.443481 
	C773.270630,772.401306 770.126892,772.854614 766.558228,774.145874 
	C807.506348,816.658630 848.680908,858.316345 889.810730,900.655334 
	C832.714172,904.158264 776.382263,901.832947 718.740295,902.594421 
	C717.286011,880.396301 718.279846,859.201721 718.110901,838.050232 
	C717.943237,817.061890 718.065979,796.071228 718.066528,775.081543 
	C718.067017,753.758789 718.075317,732.436096 718.077332,711.113342 
	C718.079346,690.166321 718.077759,669.219238 718.077759,648.555969 
	C726.009155,646.084106 963.105713,645.795593 971.563843,648.153381 
	C971.563843,714.138306 971.563843,780.300110 971.563843,847.011230 
	C965.073303,846.751892 962.941833,841.043274 958.433228,837.600037 
z"/>
<path fill="#020202" opacity="1.000000" stroke="none" 
	d="
M1236.188965,726.322998 
	C1246.287109,701.721436 1262.415527,683.492798 1286.727051,674.358276 
	C1316.372192,663.219849 1344.625244,666.614502 1371.043457,685.206665 
	C1391.477295,699.587219 1401.568970,720.210205 1406.912231,743.212708 
	C1414.030396,773.856384 1411.258057,803.880127 1395.755371,833.842896 
	C1391.931152,829.595093 1388.008301,826.516235 1385.756592,822.500305 
	C1378.546509,809.640747 1368.291382,805.698975 1353.707764,807.303833 
	C1339.562378,808.860535 1325.113770,807.636597 1310.798706,807.696106 
	C1307.611572,807.709351 1304.425659,807.982666 1299.251953,808.232056 
	C1317.622681,830.516174 1334.848755,851.411926 1352.688721,873.052246 
	C1350.423096,874.105408 1348.586060,875.246765 1346.586548,875.844910 
	C1323.624512,882.713989 1300.781250,881.397827 1279.306763,871.438049 
	C1261.738525,863.289978 1248.060181,849.686951 1239.896240,831.838440 
	C1224.226685,797.580933 1222.593384,762.526306 1236.188965,726.322998 
z"/>
<path fill="#030404" opacity="1.000000" stroke="none" 
	d="
M1844.160034,837.248779 
	C1843.871094,845.598877 1844.039307,853.386536 1842.258911,860.699890 
	C1836.761230,883.283569 1808.551880,899.750854 1785.074341,895.150330 
	C1778.968994,893.954041 1772.822021,891.984253 1767.247803,889.243835 
	C1749.010010,880.277649 1748.989502,855.183289 1763.750122,844.197083 
	C1769.720947,839.753113 1776.913452,836.319885 1784.076416,834.234741 
	C1800.962646,829.319275 1818.267090,830.137695 1835.440186,833.178162 
	C1838.306519,833.685608 1840.969116,835.343140 1844.160034,837.248779 
z"/>
<path fill="#000000" opacity="1.000000" stroke="none" 
	d="
M2032.368164,734.477295 
	C2031.268188,737.427490 2030.457642,736.807129 2030.397339,733.585876 
	C2030.979614,733.298706 2031.380249,733.630981 2032.368164,734.477295 
z"/>
</svg>