<?xml version="1.0" encoding="utf-8"?>
<!-- Generator: Adobe Illustrator 25.3.0, SVG Export Plug-In . SVG Version: 6.00 Build 0)  -->
<svg version="1.1" id="Layer_1" xmlns="http://www.w3.org/2000/svg" xmlns:xlink="http://www.w3.org/1999/xlink" x="0px" y="0px"
	 viewBox="0 0 1350 1080" style="enable-background:new 0 0 1350 1080;" xml:space="preserve">
<style type="text/css">
	.st0{fill:#AE50ED;}
</style>
<g>
	<g>
		<g>
			<path class="st0" d="M400.7,624.85c0,11.9-2.91,20.76-8.73,26.58c-5.82,5.82-15.44,8.73-28.85,8.73l1.14,25.06
				c31.89,0,56-7.15,72.32-21.45c16.32-14.3,24.49-34.23,24.49-59.8V482.48l-60.36,14.81V624.85z"/>
			<polygon class="st0" points="540.82,394.79 480.46,409.97 480.46,624.85 540.82,624.85 			"/>
			<path class="st0" d="M923.12,483.43c-11.77,4.18-36.07,13.94-46.7,41.19c-3.42,9.36-5.9,42.11,6.14,67.54
				c-93.35,20.04-185.06,19.42-254.39-3.2V482.48l-60.36,14.81v127.56c0,11.9-2.91,20.76-8.73,26.58
				c-5.82,5.82-15.44,8.73-28.85,8.73l1.14,25.06c27.33,0,48.97-5.25,64.92-15.75c15.41-10.15,25.27-24.39,29.57-42.7
				c58,23.94,156.7,24.56,295.37-1.91h58.67c20.5,0,37.02-6.26,49.54-18.79c12.53-12.53,18.79-29.05,18.79-49.54v-62.64
				C1014.8,482.74,959.75,472.23,923.12,483.43z M987.84,598.65h-22.4c-7.84,0-14.24-2.15-19.17-6.45
				c-13.68-12.58-14.62-32.9-14.62-41.76c0-29.64,11.14-38.53,16.7-41.95c14.7-8.53,31.38-3.61,39.48-0.57V598.65z"/>
			<polygon class="st0" points="953.87,431.58 927.29,405.38 901.1,431.58 927.29,458.15 			"/>
			<polygon class="st0" points="1014.23,431.58 987.65,405.38 961.46,431.58 987.65,458.15 			"/>
		</g>
		<g>
			<path class="st0" d="M328.09,585.08c-4.89,0-9.33-1.17-13.33-3.52s-7.15-5.56-9.48-9.62c-2.33-4.07-3.49-8.57-3.49-13.51
				c0-4.94,1.16-9.44,3.49-13.51c2.32-4.07,5.48-7.28,9.48-9.63c4-2.35,8.44-3.52,13.33-3.52c4.89,0,9.35,1.17,13.37,3.52
				c4.02,2.35,7.18,5.56,9.48,9.63c2.3,4.07,3.45,8.57,3.45,13.51c0,4.94-1.15,9.44-3.45,13.51c-2.3,4.07-5.46,7.28-9.48,9.62
				C337.43,583.91,332.98,585.08,328.09,585.08z M328.09,582.25c4.31,0,8.23-1.05,11.77-3.16c3.53-2.11,6.33-4.96,8.39-8.57
				c2.06-3.61,3.09-7.64,3.09-12.09c0-4.45-1.03-8.49-3.09-12.1c-2.06-3.61-4.86-6.46-8.39-8.57c-3.54-2.11-7.46-3.16-11.77-3.16
				c-4.26,0-8.16,1.05-11.69,3.16c-3.54,2.11-6.33,4.96-8.39,8.57c-2.06,3.61-3.09,7.64-3.09,12.1c0,4.46,1.03,8.49,3.09,12.09
				c2.06,3.61,4.86,6.47,8.39,8.57C319.93,581.2,323.83,582.25,328.09,582.25z M328.31,571.86c-3.49,0-6.27-1.21-8.35-3.63
				c-2.08-2.42-3.12-5.71-3.12-9.88c0-4.07,1.08-7.32,3.23-9.77c2.16-2.44,5-3.67,8.53-3.67c2.91,0,5.33,0.82,7.26,2.47
				c1.94,1.65,2.88,3.78,2.83,6.39h-5.38c-0.05-1.94-0.52-3.45-1.42-4.54c-0.9-1.09-2.1-1.63-3.6-1.63c-1.84,0-3.26,0.85-4.25,2.54
				c-0.99,1.7-1.49,4.09-1.49,7.19c0,2.28,0.29,4.24,0.87,5.88c0.58,1.65,1.42,2.92,2.51,3.81s2.36,1.34,3.81,1.34
				c1.5,0,2.89-0.41,4.18-1.23c1.28-0.82,2.43-2.01,3.45-3.56l1.82,1.02c-1.21,2.33-2.71,4.12-4.5,5.38
				C332.91,571.23,330.78,571.86,328.31,571.86z"/>
		</g>
	</g>
</g>
</svg>
