<?xml version="1.0" encoding="utf-8"?>
<!-- Generator: Adobe Illustrator 25.3.0, SVG Export Plug-In . SVG Version: 6.00 Build 0)  -->
<svg version="1.1" id="Layer_1" xmlns="http://www.w3.org/2000/svg" xmlns:xlink="http://www.w3.org/1999/xlink" x="0px" y="0px"
	 viewBox="0 0 1350 1080" style="enable-background:new 0 0 1350 1080;" xml:space="preserve">
<style type="text/css">
	.st0{fill:#AE50ED;}
</style>
<g>
	<g>
		<g>
			<g>
				<path class="st0" d="M1053.52,562.01c-5.16,0-9.84-1.24-14.06-3.71s-7.54-5.86-9.99-10.15c-2.45-4.29-3.68-9.04-3.68-14.25
					c0-5.21,1.23-9.96,3.68-14.25c2.45-4.29,5.78-7.67,9.99-10.15c4.21-2.47,8.9-3.71,14.06-3.71c5.16,0,9.85,1.24,14.09,3.71
					c4.24,2.48,7.57,5.86,9.99,10.15c2.43,4.29,3.64,9.04,3.64,14.25c0,5.21-1.21,9.96-3.64,14.25c-2.42,4.29-5.76,7.67-9.99,10.15
					C1063.37,560.77,1058.67,562.01,1053.52,562.01z M1053.52,559.02c4.54,0,8.68-1.11,12.41-3.33c3.73-2.22,6.68-5.23,8.85-9.04
					c2.17-3.8,3.26-8.05,3.26-12.75c0-4.7-1.09-8.95-3.26-12.75c-2.17-3.8-5.12-6.82-8.85-9.04c-3.73-2.22-7.86-3.33-12.41-3.33
					c-4.49,0-8.6,1.11-12.33,3.33c-3.73,2.22-6.68,5.23-8.85,9.04c-2.17,3.8-3.25,8.06-3.25,12.75c0,4.7,1.08,8.95,3.25,12.75
					c2.17,3.8,5.12,6.82,8.85,9.04C1044.91,557.91,1049.02,559.02,1053.52,559.02z M1053.75,548.07c-3.68,0-6.61-1.28-8.81-3.83
					c-2.2-2.55-3.29-6.03-3.29-10.42c0-4.29,1.14-7.72,3.41-10.3c2.27-2.58,5.27-3.87,9-3.87c3.06,0,5.62,0.87,7.66,2.6
					c2.04,1.74,3.04,3.98,2.99,6.74h-5.67c-0.05-2.04-0.55-3.64-1.49-4.79c-0.95-1.15-2.21-1.72-3.79-1.72
					c-1.94,0-3.43,0.89-4.48,2.68c-1.05,1.79-1.57,4.32-1.57,7.58c0,2.4,0.31,4.47,0.92,6.2c0.61,1.74,1.49,3.08,2.64,4.02
					s2.49,1.42,4.02,1.42c1.58,0,3.05-0.43,4.4-1.3c1.35-0.87,2.57-2.12,3.64-3.75l1.92,1.07c-1.28,2.45-2.86,4.34-4.75,5.67
					C1058.6,547.4,1056.35,548.07,1053.75,548.07z"/>
			</g>
			<path class="st0" d="M440.96,483.78c-4.37-11.34-10.46-20.99-18.25-28.96c-7.82-7.97-17.21-14.13-28.21-18.5
				c-11-4.37-23.11-6.55-36.36-6.55c-13.28,0-25.41,2.17-36.39,6.55c-11,4.37-20.39,10.53-28.21,18.5
				c-7.79,7.97-13.87,17.62-18.25,28.96s-6.55,24.04-6.55,38.15c0,14.08,2.17,26.81,6.55,38.12c4.37,11.34,10.48,20.99,18.38,28.96
				c7.89,7.97,17.29,14.16,28.21,18.5c6.26,2.51,12.91,4.3,19.95,5.36c-0.62-3.39-0.93-6.99-0.93-10.82v-6.19
				c-2.41-0.91-4.68-2.02-6.83-3.34c-6.44-3.93-11.83-9.32-16.1-16.1c-4.3-6.81-7.5-14.86-9.71-24.17
				c-2.17-9.32-3.26-19.44-3.26-30.33c0-11.26,1.09-21.58,3.26-30.98c2.2-9.39,5.51-17.49,9.96-24.3
				c4.43-6.78,9.96-12.11,16.61-15.97c6.63-3.88,14.39-5.8,23.29-5.8c8.88,0,16.64,1.92,23.27,5.8c6.65,3.86,12.19,9.19,16.61,15.97
				c4.45,6.81,7.76,14.91,9.96,24.3c2.17,9.39,3.26,19.72,3.26,30.98c0,9.55-0.8,18.5-2.38,26.81c-1.6,8.31-4.04,15.74-7.3,22.28
				c-3.29,6.55-7.4,12.09-12.34,16.62c-3.73,3.42-7.89,6.06-12.53,7.95v18.01c10.17-2.2,21.45-7.09,29.66-11.88
				c8.62-5.02,15.97-11.44,22.02-19.25c6.03-7.79,10.74-16.77,14.1-26.94c3.34-10.14,5.02-21.35,5.02-33.59
				C447.51,507.82,445.34,495.11,440.96,483.78z"/>
			<path class="st0" d="M605.59,522.76c4.21-4.45,7.52-9.6,9.98-15.48c2.45-5.85,3.67-12.35,3.67-19.53c0-9.79-2.18-18.34-6.55-25.6
				c-4.37-7.26-10.2-13.3-17.45-18.1c-7.25-4.8-15.56-8.39-24.92-10.76c-9.36-2.35-19.01-3.53-28.99-3.53h-74.79v183.67h34.12v-67.7
				h34.63l39.35,67.94l39.38-0.24l-41.72-71.63c6.63-1.94,12.81-4.48,18.5-7.61C596.45,531.04,601.41,527.24,605.59,522.76z
				 M578.43,506.25c-2,5.31-4.8,9.74-8.39,13.24c-3.59,3.51-7.82,6.12-12.73,7.88c-4.88,1.75-10.22,2.62-15.99,2.62h-40.67v-84.5
				h40.67c5.77,0,11.11,0.89,15.99,2.64c4.91,1.75,9.14,4.37,12.73,7.88c3.59,3.48,6.39,7.85,8.39,13.11
				c2.02,5.26,3.02,11.46,3.02,18.64C581.45,494.74,580.45,500.91,578.43,506.25z"/>
			<path class="st0" d="M738.37,430.01h-21.52l-81.86,183.67h17.32l27.02-61.14h76.62l27.54,61.14h37.25L738.37,430.01z
				 M686.42,536.78l31.2-69.8l31.23,69.8H686.42z"/>
			<path class="st0" d="M980.81,522.76c4.18-4.45,7.5-9.6,9.95-15.48c2.45-5.85,3.7-12.35,3.7-19.53c0-9.79-2.21-18.34-6.58-25.6
				c-4.37-7.26-10.2-13.3-17.45-18.1c-7.26-4.8-15.56-8.39-24.92-10.76c-9.36-2.35-19.01-3.53-28.99-3.53h-74.76v183.67h34.09v-67.7
				h34.63l39.38,67.94l39.35-0.24l-41.72-71.63c6.66-1.94,12.81-4.48,18.5-7.61C971.66,531.04,976.6,527.24,980.81,522.76z
				 M953.65,506.25c-2.02,5.31-4.83,9.74-8.42,13.24c-3.59,3.51-7.82,6.12-12.7,7.88c-4.91,1.75-10.25,2.62-16.02,2.62h-40.67v-84.5
				h40.67c5.77,0,11.11,0.89,16.02,2.64c4.88,1.75,9.12,4.37,12.7,7.88c3.59,3.48,6.39,7.85,8.42,13.11
				c2,5.26,3.02,11.46,3.02,18.64C956.67,494.74,955.64,500.91,953.65,506.25z"/>
		</g>
		<g>
			<path class="st0" d="M399.01,635.38l-0.67,14.86c-18.92,0-33.23-4.22-42.91-12.71c-7.25-6.34-11.77-14.57-13.59-24.66
				c-0.62-3.39-0.93-6.99-0.93-10.82v-56.96h35.79v69.36c0,1.09,0.05,2.15,0.13,3.16c0.47,5.49,2.15,9.68,5.05,12.6
				c0.67,0.67,1.45,1.29,2.3,1.84C387.68,634.27,392.62,635.38,399.01,635.38z"/>
		</g>
	</g>
</g>
</svg>
