<?xml version="1.0" encoding="utf-8"?>
<!-- QRAR logo mark, cropped to the glyph for use on the About page (brand purple #AE50ED) -->
<svg version="1.1" id="Layer_1" xmlns="http://www.w3.org/2000/svg" xmlns:xlink="http://www.w3.org/1999/xlink" x="0px" y="0px"
	 viewBox="517 292 316 496" xml:space="preserve">
<style type="text/css">
	.st0{fill:#AE50ED;}
</style>
<g>
	<g>
		<g>
			<g>
				<path class="st0" d="M527.46,565.78c0,20.21,2.78,38.71,8.29,55.45c5.55,16.79,13.33,31.61,23.28,44.47
					c10,12.9,22.13,23.5,36.36,31.79c13.54,7.9,32.17,15.98,48.96,19.61v-29.73c-7.65-3.12-14.53-7.48-20.68-13.12
					c-8.16-7.48-14.95-16.62-20.38-27.43c-5.38-10.81-9.4-23.07-12.05-36.78c-2.61-13.71-3.93-28.5-3.93-44.26
					c0-18.58,1.79-35.63,5.38-51.14c3.63-15.51,9.1-28.88,16.45-40.12c7.31-11.19,16.45-19.99,27.43-26.36
					c10.94-6.41,23.75-9.57,38.41-9.57c14.7,0,27.51,3.16,38.45,9.57c10.98,6.37,20.12,15.17,27.43,26.36
					c7.35,11.24,12.82,24.61,16.45,40.12c3.59,15.51,5.38,32.55,5.38,51.14c0,17.99-1.8,34.69-5.38,50.07
					c-3.63,15.38-8.93,28.67-16.02,39.9c-7.05,11.19-15.94,20.08-26.57,26.57c-3.55,2.18-7.31,4.02-11.28,5.51v10.21
					c0,6.32-0.51,12.26-1.54,17.86c11.62-1.75,22.6-4.7,32.94-8.84c18.03-7.18,33.54-17.39,46.57-30.55
					c13.03-13.16,23.11-29.09,30.33-47.81c7.22-18.67,10.81-39.69,10.81-62.93c0-23.28-3.59-44.26-10.81-62.97
					c-7.22-18.71-17.26-34.65-30.12-47.81c-12.9-13.16-28.41-23.33-46.57-30.55c-18.11-7.22-38.15-10.81-60.07-10.81
					c-21.87,0-41.87,3.59-60.03,10.81s-33.66,17.39-46.57,30.55c-12.86,13.16-22.9,29.09-30.12,47.81
					C531.05,521.52,527.46,542.49,527.46,565.78z"/>
			</g>
		</g>
		<g>
			<g>
				<path class="st0" d="M607.52,753.07l1.11,24.52c31.23,0,54.86-6.96,70.83-20.98c11.96-10.47,19.44-24.05,22.43-40.71
					c1.02-5.6,1.54-11.54,1.54-17.86v-94.03h-59.09v114.5c0,1.79-0.09,3.55-0.21,5.21c-0.77,9.06-3.55,15.98-8.33,20.81
					c-1.11,1.11-2.39,2.14-3.8,3.03C626.23,751.24,618.07,753.07,607.52,753.07z"/>
			</g>
		</g>
		<g>
			<polygon class="st0" points="681.61,348 727.87,302.4 773.46,348 727.87,394.26 			"/>
		</g>
		<g>
			<polygon class="st0" points="576.54,348 622.8,302.4 668.39,348 622.8,394.26 			"/>
		</g>
	</g>
</g>
</svg>
